<?xml version="1.0" encoding="UTF-8"?><svg id="Layer_1" xmlns="http://www.w3.org/2000/svg" xmlns:xlink="http://www.w3.org/1999/xlink" viewBox="0 0 48 48"><defs><style>.cls-1{fill:url(#radial-gradient-2);}.cls-2{fill:url(#radial-gradient);}</style><radialGradient id="radial-gradient" cx="18.071" cy="15.286" fx="18.071" fy="15.286" r="31.296" gradientUnits="userSpaceOnUse"><stop offset="0" stop-color="#edf1f2"/><stop offset="1" stop-color="#c6cbcc"/></radialGradient><radialGradient id="radial-gradient-2" cx="17.75" cy="17.536" fx="17.75" fy="17.536" r="29.782" gradientUnits="userSpaceOnUse"><stop offset="0" stop-color="#3e4154"/><stop offset="1" stop-color="#1b2129"/></radialGradient></defs><circle class="cls-2" cx="24" cy="24" r="22"/><path class="cls-1" d="M33.17,22.303c.026-.08,.022-.162,.038-.243l5.79-1.881c.063,.059,.11,.13,.182,.181l6.78,4.93c.03-.42,.04-.86,.04-1.29,0-5.3-1.87-10.16-4.99-13.96l-2.59,7.98c-.027,.084-.024,.171-.041,.257l-5.778,1.877c-.066-.063-.117-.139-.193-.194l-7.177-5.214c-.072-.052-.155-.076-.232-.117v-6.07c.076-.042,.159-.066,.23-.118l6.79-4.93c-2.48-.98-5.19-1.51-8.02-1.51s-5.54,.53-8.02,1.51l6.79,4.93c.071,.053,.154,.076,.23,.118v6.07c-.076,.042-.16,.065-.232,.117l-7.177,5.214c-.076,.055-.126,.13-.193,.193l-5.778-1.878c-.016-.085-.013-.172-.041-.256l-2.59-7.98c-3.12,3.8-4.99,8.66-4.99,13.96,0,.43,.01,.87,.04,1.29l6.78-4.93c.072-.051,.119-.123,.182-.182l5.79,1.881c.016,.081,.012,.163,.038,.243l2.741,8.437c.028,.087,.083,.157,.122,.238l-3.577,4.923c-.087-.011-.168-.041-.257-.041H5.47c2.94,4.59,7.55,8.02,12.97,9.43l-2.59-7.98c-.027-.084-.081-.151-.117-.229l3.583-4.932c.084,.01,.162,.04,.248,.04h8.871c.086,0,.164-.029,.248-.04l3.584,4.933c-.037,.078-.09,.146-.117,.229l-2.59,7.98c5.42-1.41,10.03-4.84,12.97-9.43h-8.39c-.089,0-.171,.03-.257,.042l-3.576-4.923c.039-.081,.094-.151,.122-.239l2.741-8.437Z"/></svg>