<?xml version="1.0" encoding="UTF-8" standalone="no"?> <svg width="64" height="64" viewBox="0 0 64 64" fill="none" xmlns="http://www.w3.org/2000/svg">
<path d="M32 3.5C31.6022 3.5 31.2206 3.65804 30.9393 3.93934C30.658 4.22064 30.5 4.60218 30.5 5V9.76C30.5 10.1578 30.658 10.5394 30.9393 10.8207C31.2206 11.102 31.6022 11.26 32 11.26C32.3978 11.26 32.7794 11.102 33.0607 10.8207C33.342 10.5394 33.5 10.1578 33.5 9.76V5C33.5 4.60218 33.342 4.22064 33.0607 3.93934C32.7794 3.65804 32.3978 3.5 32 3.5V3.5Z" fill="#F8B64C"/>
<path d="M46.58 17.3001C46.9775 17.2987 47.3584 17.1406 47.64 16.8601L51 13.4901C51.1403 13.3516 51.2517 13.1865 51.3277 13.0045C51.4037 12.8226 51.4429 12.6273 51.4429 12.4301C51.4429 12.2329 51.4037 12.0377 51.3277 11.8557C51.2517 11.6738 51.1403 11.5087 51 11.3701C50.7175 11.0917 50.3367 10.9355 49.94 10.9355C49.5433 10.9355 49.1625 11.0917 48.88 11.3701L45.52 14.7401C45.3797 14.8787 45.2683 15.0438 45.1923 15.2257C45.1163 15.4077 45.0771 15.6029 45.0771 15.8001C45.0771 15.9973 45.1163 16.1926 45.1923 16.3745C45.2683 16.5565 45.3797 16.7216 45.52 16.8601C45.8017 17.1406 46.1825 17.2987 46.58 17.3001V17.3001Z" fill="#F8B64C"/>
<path d="M57.3801 28.8799H52.6201C52.2223 28.8799 51.8408 29.0379 51.5595 29.3192C51.2782 29.6005 51.1201 29.9821 51.1201 30.3799C51.1201 30.7777 51.2782 31.1592 51.5595 31.4405C51.8408 31.7218 52.2223 31.8799 52.6201 31.8799H57.3801C57.7779 31.8799 58.1595 31.7218 58.4408 31.4405C58.7221 31.1592 58.8801 30.7777 58.8801 30.3799C58.8801 29.9821 58.7221 29.6005 58.4408 29.3192C58.1595 29.0379 57.7779 28.8799 57.3801 28.8799V28.8799Z" fill="#F8B64C"/>
<path d="M47.6402 43.9002C47.5086 43.7365 47.3441 43.6023 47.1573 43.5063C46.9705 43.4103 46.7656 43.3545 46.5559 43.3427C46.3462 43.3309 46.1364 43.3632 45.94 43.4376C45.7436 43.512 45.565 43.6269 45.4158 43.7747C45.2666 43.9225 45.1501 44.1 45.0738 44.2956C44.9976 44.4913 44.9632 44.7008 44.9731 44.9106C44.9829 45.1204 45.0367 45.3258 45.131 45.5135C45.2252 45.7012 45.3578 45.867 45.5202 46.0002L48.8802 49.3602C49.1631 49.6388 49.5432 49.7966 49.9402 49.8002C50.2327 49.7961 50.5175 49.7067 50.7598 49.5428C51.002 49.379 51.1911 49.1479 51.3037 48.878C51.4164 48.6081 51.4477 48.3112 51.3937 48.0237C51.3398 47.7363 51.203 47.4709 51.0002 47.2602L47.6402 43.9002Z" fill="#F8B64C"/>
<path d="M16.3602 43.8998L13.0002 47.2598C12.7907 47.4695 12.648 47.7367 12.5903 48.0275C12.5325 48.3183 12.5622 48.6197 12.6756 48.8936C12.7891 49.1675 12.9811 49.4017 13.2275 49.5665C13.474 49.7314 13.7637 49.8195 14.0602 49.8198C14.4572 49.8162 14.8373 49.6584 15.1202 49.3798L18.4802 45.9998C18.6276 45.8624 18.7458 45.6968 18.8278 45.5128C18.9098 45.3288 18.9538 45.1302 18.9574 44.9288C18.9609 44.7274 18.9239 44.5273 18.8485 44.3406C18.773 44.1538 18.6607 43.9841 18.5183 43.8417C18.3758 43.6992 18.2062 43.587 18.0194 43.5115C17.8326 43.4361 17.6326 43.399 17.4312 43.4026C17.2298 43.4061 17.0311 43.4502 16.8471 43.5322C16.6631 43.6142 16.4975 43.7324 16.3602 43.8798V43.8998Z" fill="#F8B64C"/>
<path d="M11.3801 28.8799H6.62012C6.22229 28.8799 5.84076 29.0379 5.55946 29.3192C5.27815 29.6005 5.12012 29.9821 5.12012 30.3799C5.12012 30.7777 5.27815 31.1592 5.55946 31.4405C5.84076 31.7218 6.22229 31.8799 6.62012 31.8799H11.3801C11.7779 31.8799 12.1595 31.7218 12.4408 31.4405C12.7221 31.1592 12.8801 30.7777 12.8801 30.3799C12.8801 29.9821 12.7221 29.6005 12.4408 29.3192C12.1595 29.0379 11.7779 28.8799 11.3801 28.8799V28.8799Z" fill="#F8B64C"/>
<path d="M15.1202 11.3701C14.8377 11.0917 14.4569 10.9355 14.0602 10.9355C13.6635 10.9355 13.2828 11.0917 13.0002 11.3701C12.8599 11.5087 12.7486 11.6738 12.6725 11.8557C12.5965 12.0377 12.5574 12.2329 12.5574 12.4301C12.5574 12.6273 12.5965 12.8226 12.6725 13.0045C12.7486 13.1865 12.8599 13.3516 13.0002 13.4901L16.3602 16.8601C16.6415 17.141 17.0227 17.2988 17.4202 17.2988C17.8177 17.2988 18.199 17.141 18.4802 16.8601C18.6205 16.7216 18.7319 16.5565 18.8079 16.3745C18.8839 16.1926 18.9231 15.9973 18.9231 15.8001C18.9231 15.6029 18.8839 15.4077 18.8079 15.2257C18.7319 15.0438 18.6205 14.8787 18.4802 14.7401L15.1202 11.3701Z" fill="#F8B64C"/>
<path d="M35.24 50.21H28.76C28.3622 50.21 27.9807 50.368 27.6993 50.6493C27.418 50.9306 27.26 51.3121 27.26 51.71V55.71C27.26 56.9671 27.7594 58.1727 28.6483 59.0616C29.5372 59.9506 30.7429 60.45 32 60.45C33.2571 60.45 34.4628 59.9506 35.3517 59.0616C36.2406 58.1727 36.74 56.9671 36.74 55.71V51.71C36.74 51.3121 36.582 50.9306 36.3007 50.6493C36.0194 50.368 35.6378 50.21 35.24 50.21V50.21Z" fill="#40596B"/>
<path d="M48.4601 28.9999C48.2357 26.2988 47.3501 23.6943 45.8814 21.4162C44.4128 19.1382 42.4061 17.2565 40.0384 15.937C37.6708 14.6176 35.0149 13.9011 32.3049 13.8505C29.5949 13.8 26.9141 14.417 24.4988 15.6472C22.0836 16.8774 20.0082 18.683 18.4556 20.9047C16.903 23.1265 15.9209 25.6961 15.596 28.387C15.271 31.0779 15.6131 33.8075 16.5922 36.3349C17.5713 38.8624 19.1572 41.1101 21.2101 42.8799C22.3882 43.8816 23.3366 45.1254 23.9906 46.5266C24.6446 47.9279 24.9889 49.4536 25.0001 50.9999V51.6999C25.0001 52.0978 25.1581 52.4793 25.4394 52.7606C25.7207 53.0419 26.1023 53.1999 26.5001 53.1999H37.5001C37.8979 53.1999 38.2795 53.0419 38.5608 52.7606C38.8421 52.4793 39.0001 52.0978 39.0001 51.6999V50.9999C39.0252 49.4341 39.3843 47.8917 40.0534 46.4759C40.7225 45.06 41.6862 43.8034 42.8801 42.7899C44.8307 41.0934 46.3528 38.96 47.3225 36.5636C48.2922 34.1672 48.6819 31.5756 48.4601 28.9999V28.9999Z" fill="#FFD164"/>
</svg>
