<?xml version="1.0" encoding="UTF-8" standalone="no"?> <svg xmlns="http://www.w3.org/2000/svg" viewBox="0 0 64 64"><title>football player</title><g id="_22-player" data-name="22-player"><path d="M42.913,33.728,36,32h-.141a3.982,3.982,0,0,1-7.718,0H28l-6.913,1.728A12,12,0,0,0,12,45.367V49h9V63H43V49h9V45.367A12,12,0,0,0,42.913,33.728Z" style="fill:#2f62b5"/><rect x="15" y="49" width="6" height="14" style="fill:#ffe0d2"/><rect x="43" y="49" width="6" height="14" style="fill:#ffe0d2"/><polygon points="22.5 16 24 16 24 10 40 10 40 16 41.5 16 42 16 45 12 43 1 29 1 26 5 19 4 19 12 22 16 22.5 16" style="fill:#846346"/><path d="M34.86,33.79a3.985,3.985,0,0,1-5.72,0L21,46V63H43V46Z" style="fill:#82a1d3"/><path d="M32,30a7.956,7.956,0,0,1-3.87-1H28v2a4,4,0,0,0,8,0V29h-.13A7.956,7.956,0,0,1,32,30Z" style="fill:#e5c4b7"/><path d="M41.5,16H40V10H24v6H22.5a2.5,2.5,0,0,0,0,5H24v1a8,8,0,0,0,16,0V21h1.5a2.5,2.5,0,0,0,0-5Z" style="fill:#ffe0d2"/><polygon points="27 44 37 44 33 58 30 58 33 47 27 47 27 44" style="fill:#fff"/><path d="M29,19a1,1,0,0,1-1-1V17a1,1,0,0,1,2,0v1A1,1,0,0,1,29,19Z" style="fill:#4c4641"/><path d="M35,19a1,1,0,0,1-1-1V17a1,1,0,0,1,2,0v1A1,1,0,0,1,35,19Z" style="fill:#4c4641"/></g></svg>